<svg xmlns="http://www.w3.org/2000/svg" xmlns:xlink="http://www.w3.org/1999/xlink" width="512" zoomAndPan="magnify" viewBox="0 0 384 383.999986" height="512" preserveAspectRatio="xMidYMid meet" version="1.0"><defs><g/></defs><g fill="#000000" fill-opacity="1"><g transform="translate(94.453461, 196.822667)"><g><path d="M 71.597656 -19.300781 L 86.796875 -19.300781 L 86.796875 -79.097656 C 86.796875 -79.496094 86.398438 -79.996094 85.699219 -79.996094 L 72.5 -79.996094 C 72.097656 -79.996094 71.597656 -79.699219 71.398438 -79.398438 L 44.097656 -20.800781 L 15.398438 -79.398438 C 15.300781 -79.699219 14.699219 -79.996094 14.398438 -79.996094 L 1 -79.996094 C 0.300781 -79.996094 0 -79.496094 0 -79.097656 L 0 -0.898438 C 0 -0.5 0.300781 0 1 0 L 14.199219 0 C 14.800781 0 15.300781 -0.5 15.300781 -0.898438 L 15.300781 -45.800781 L 37 -3.800781 C 37.097656 -3.5 37.699219 -3.199219 38 -3.199219 L 50.296875 -3.199219 C 50.597656 -3.199219 51.097656 -3.5 51.199219 -3.800781 L 71.597656 -44.699219 Z M 71.597656 -19.300781 "/></g></g></g><g fill="#000000" fill-opacity="1"><g transform="translate(253.119919, 162.922691)"><g><path d="M -71.597656 19.300781 L -86.796875 19.300781 L -86.796875 79.097656 C -86.796875 79.496094 -86.398438 79.996094 -85.699219 79.996094 L -72.5 79.996094 C -72.097656 79.996094 -71.597656 79.699219 -71.398438 79.398438 L -44.097656 20.800781 L -15.398438 79.398438 C -15.300781 79.699219 -14.699219 79.996094 -14.398438 79.996094 L -1 79.996094 C -0.300781 79.996094 0 79.496094 0 79.097656 L 0 0.898438 C 0 0.5 -0.300781 0 -1 0 L -14.199219 0 C -14.800781 0 -15.300781 0.5 -15.300781 0.898438 L -15.300781 45.800781 L -37 3.800781 C -37.097656 3.5 -37.699219 3.199219 -38 3.199219 L -50.296875 3.199219 C -50.597656 3.199219 -51.097656 3.5 -51.199219 3.800781 L -71.597656 44.699219 Z M -71.597656 19.300781 "/></g></g></g><g fill="#000000" fill-opacity="1"><g transform="translate(94.135349, 212.322698)"><g><path d="M 11.046875 -10.25 L 11.046875 0 L 8.671875 0 L 8.671875 -6.140625 L 6.9375 -1.96875 L 4.875 -1.96875 L 3.15625 -6.140625 L 3.15625 0 L 0.78125 0 L 0.78125 -10.25 L 3.875 -10.25 L 5.953125 -5.078125 L 8.078125 -10.25 Z M 11.046875 -10.25 "/></g></g></g><g fill="#000000" fill-opacity="1"><g transform="translate(114.873129, 212.322698)"><g><path d="M 2.609375 0 L -0.046875 0 L 3.75 -10.25 L 6.375 -10.25 L 10.0625 0 L 7.421875 0 L 6.875 -1.71875 L 3.15625 -1.71875 Z M 5 -7.734375 C 4.914062 -7.421875 4.820312 -7.09375 4.71875 -6.75 C 4.613281 -6.414062 4.441406 -5.859375 4.203125 -5.078125 L 3.78125 -3.71875 L 6.25 -3.71875 L 5.8125 -5.078125 C 5.675781 -5.492188 5.535156 -5.929688 5.390625 -6.390625 C 5.253906 -6.859375 5.125 -7.304688 5 -7.734375 Z M 5 -7.734375 "/></g></g></g><g fill="#000000" fill-opacity="1"><g transform="translate(133.8303, 212.322698)"><g><path d="M 8.3125 -10.25 L 8.3125 -7.953125 L 5.53125 -7.953125 L 5.53125 0 L 2.984375 0 L 2.984375 -7.953125 L 0.203125 -7.953125 L 0.203125 -10.25 Z M 8.3125 -10.25 "/></g></g></g><g fill="#000000" fill-opacity="1"><g transform="translate(151.251891, 212.322698)"><g><path d="M 3.3125 0 L 0.78125 0 L 0.78125 -10.25 L 3.3125 -10.25 L 3.3125 -6.34375 L 6.90625 -6.34375 L 6.90625 -10.25 L 9.453125 -10.25 L 9.453125 0 L 6.90625 0 L 6.90625 -4.046875 L 3.3125 -4.046875 Z M 3.3125 0 "/></g></g></g><g fill="#000000" fill-opacity="1"><g transform="translate(192.959069, 158.135027)"><g><path d="M 11.015625 -10.21875 L 11.015625 0 L 8.65625 0 L 8.65625 -6.125 L 6.90625 -1.953125 L 4.859375 -1.953125 L 3.140625 -6.125 L 3.140625 0 L 0.78125 0 L 0.78125 -10.21875 L 3.859375 -10.21875 L 5.9375 -5.0625 L 8.046875 -10.21875 Z M 11.015625 -10.21875 "/></g></g></g><g fill="#000000" fill-opacity="1"><g transform="translate(205.583641, 158.135027)"><g><path d="M 2.609375 0 L -0.046875 0 L 3.734375 -10.21875 L 6.359375 -10.21875 L 10.03125 0 L 7.40625 0 L 6.859375 -1.71875 L 3.140625 -1.71875 Z M 4.984375 -7.703125 C 4.898438 -7.398438 4.804688 -7.078125 4.703125 -6.734375 C 4.597656 -6.390625 4.425781 -5.832031 4.1875 -5.0625 L 3.765625 -3.71875 L 6.21875 -3.71875 L 5.796875 -5.0625 C 5.660156 -5.476562 5.519531 -5.914062 5.375 -6.375 C 5.238281 -6.84375 5.109375 -7.285156 4.984375 -7.703125 Z M 4.984375 -7.703125 "/></g></g></g><g fill="#000000" fill-opacity="1"><g transform="translate(216.432707, 158.135027)"><g><path d="M 9.59375 -10.21875 L 9.59375 0 L 7.1875 0 L 3.140625 -5.90625 L 3.140625 0 L 0.78125 0 L 0.78125 -10.21875 L 3.171875 -10.21875 L 7.234375 -4.09375 L 7.234375 -10.21875 Z M 9.59375 -10.21875 "/></g></g></g><g fill="#000000" fill-opacity="1"><g transform="translate(227.640134, 158.135027)"><g><path d="M 3.3125 -10.21875 L 3.3125 0 L 0.78125 0 L 0.78125 -10.21875 Z M 3.3125 -10.21875 "/></g></g></g><g fill="#000000" fill-opacity="1"><g transform="translate(232.559983, 158.135027)"><g><path d="M 2.609375 0 L -0.046875 0 L 3.734375 -10.21875 L 6.359375 -10.21875 L 10.03125 0 L 7.40625 0 L 6.859375 -1.71875 L 3.140625 -1.71875 Z M 4.984375 -7.703125 C 4.898438 -7.398438 4.804688 -7.078125 4.703125 -6.734375 C 4.597656 -6.390625 4.425781 -5.832031 4.1875 -5.0625 L 3.765625 -3.71875 L 6.21875 -3.71875 L 5.796875 -5.0625 C 5.660156 -5.476562 5.519531 -5.914062 5.375 -6.375 C 5.238281 -6.84375 5.109375 -7.285156 4.984375 -7.703125 Z M 4.984375 -7.703125 "/></g></g></g><g fill="#000000" fill-opacity="1"><g transform="translate(243.40905, 158.135027)"><g><path d="M 6.1875 -5.3125 L 9.578125 0 L 6.5 0 L 4.515625 -3.265625 L 2.609375 0 L -0.15625 0 L 3.1875 -5.21875 L 0.03125 -10.21875 L 3.109375 -10.21875 L 4.828125 -7.296875 L 6.546875 -10.21875 L 9.234375 -10.21875 Z M 6.1875 -5.3125 "/></g></g></g></svg>